<svg width="109" height="109" viewBox="0 0 109 109" fill="none" xmlns="http://www.w3.org/2000/svg">
<path fill-rule="evenodd" clip-rule="evenodd" d="M31.9336 0H77.0664C94.7023 0 109 14.2977 109 31.9336V77.0664C109 94.7023 94.7023 109 77.0664 109H31.9336C14.2977 109 0 94.7023 0 77.0664V31.9336C0 14.2977 14.2977 0 31.9336 0Z" fill="white"/>
<path d="M77.0664 0H31.9336C14.2977 0 0 14.2977 0 31.9336V77.0664C0 94.7023 14.2977 109 31.9336 109H77.0664C94.7023 109 109 94.7023 109 77.0664V31.9336C109 14.2977 94.7023 0 77.0664 0ZM78.6503 84.111C78.6503 85.1179 75.6613 85.6204 69.6834 85.6204C63.7054 85.6204 60.7164 85.1179 60.7164 84.111V63.6905H48.2857V84.111C48.2857 85.1179 45.2967 85.6204 39.3188 85.6204C33.3408 85.6204 30.3518 85.1179 30.3518 84.111V25.2446C30.3518 24.0013 33.3408 23.3796 39.3188 23.3796C45.2967 23.3796 48.2857 24.0013 48.2857 25.2446V46.11H60.7164V25.4234C60.7164 24.5953 62.196 24.0034 65.1552 23.6479C66.6944 23.5308 68.2038 23.4691 69.6834 23.4691L74.2115 23.6479C77.1707 24.0034 78.6503 24.5953 78.6503 25.4234V84.111Z" fill="url(#paint0_linear_56_10)"/>
<defs>
<linearGradient id="paint0_linear_56_10" x1="9.35229" y1="9.35229" x2="99.6477" y2="99.6477" gradientUnits="userSpaceOnUse">
<stop stop-color="#7FFFEB"/>
<stop offset="1" stop-color="#0BCEAF"/>
</linearGradient>
</defs>
</svg>
