<svg width="315" height="109" viewBox="0 0 315 109" fill="none" xmlns="http://www.w3.org/2000/svg">
<path fill-rule="evenodd" clip-rule="evenodd" d="M31.9336 0H77.0664C94.7023 0 109 14.2977 109 31.9336V77.0664C109 94.7023 94.7023 109 77.0664 109H31.9336C14.2977 109 0 94.7023 0 77.0664V31.9336C0 14.2977 14.2977 0 31.9336 0Z" fill="white"/>
<path d="M77.0664 0H31.9336C14.2977 0 0 14.2977 0 31.9336V77.0664C0 94.7023 14.2977 109 31.9336 109H77.0664C94.7023 109 109 94.7023 109 77.0664V31.9336C109 14.2977 94.7023 0 77.0664 0ZM78.6503 84.111C78.6503 85.1179 75.6613 85.6204 69.6834 85.6204C63.7054 85.6204 60.7164 85.1179 60.7164 84.111V63.6905H48.2857V84.111C48.2857 85.1179 45.2967 85.6204 39.3188 85.6204C33.3408 85.6204 30.3518 85.1179 30.3518 84.111V25.2446C30.3518 24.0013 33.3408 23.3796 39.3188 23.3796C45.2967 23.3796 48.2857 24.0013 48.2857 25.2446V46.11H60.7164V25.4234C60.7164 24.5953 62.196 24.0034 65.1552 23.6479C66.6944 23.5308 68.2038 23.4691 69.6834 23.4691L74.2115 23.6479C77.1707 24.0034 78.6503 24.5953 78.6503 25.4234V84.111Z" fill="url(#paint0_linear_133_12)"/>
<path d="M137.624 83.712C135.448 83.7973 133.443 83.52 131.608 82.88C129.816 82.2827 128.344 81.4507 127.192 80.384C126.083 79.3173 125.379 78.08 125.08 76.672C124.781 75.2213 125.037 73.7493 125.848 72.256C126.957 70.464 129.176 69.9307 132.504 70.656C135.021 71.168 136.749 71.4453 137.688 71.488C138.669 71.5307 139.501 71.4027 140.184 71.104C143.299 70.08 145.048 68.9707 145.432 67.776C145.688 66.88 145.133 65.8347 143.768 64.64C143.213 64.128 142.595 63.616 141.912 63.104C141.229 62.592 140.653 62.08 140.184 61.568C138.051 59.9893 136.365 58.176 135.128 56.128C133.933 54.0373 133.443 51.776 133.656 49.344C133.869 46.912 134.275 44.9067 134.872 43.328C135.469 41.7067 136.216 40.2773 137.112 39.04C138.691 36.864 140.739 35.0933 143.256 33.728C146.157 32.2347 148.483 31.2747 150.232 30.848C153.688 30.08 157.187 30.016 160.728 30.656C161.923 30.8693 162.947 31.2747 163.8 31.872C164.653 32.4693 165.507 33.088 166.36 33.728C167.853 35.2213 168.216 36.736 167.448 38.272C167.149 38.9547 166.68 39.5093 166.04 39.936C165.4 40.3627 164.717 40.5973 163.992 40.64C164.077 41.792 163.864 42.6453 163.352 43.2C162.371 44.1813 160.664 44.8213 158.232 45.12C154.733 44.864 152.365 45.056 151.128 45.696C149.677 46.464 149.144 48.128 149.528 50.688C149.613 51.2427 149.955 51.8187 150.552 52.416C151.192 53.0133 151.917 53.6533 152.728 54.336C153.581 55.0187 154.456 55.7867 155.352 56.64C156.291 57.4933 157.101 58.4747 157.784 59.584C160.173 63.5093 159.981 68.096 157.208 73.344C155.16 77.2693 151.661 80.2133 146.712 82.176C144.152 83.2 141.123 83.712 137.624 83.712ZM170.633 51.904C171.827 50.752 173.15 50.0907 174.601 49.92C176.094 49.7067 177.395 49.856 178.505 50.368C179.657 50.88 180.489 51.712 181.001 52.864C181.555 53.9733 181.491 55.2533 180.809 56.704C179.358 58.8373 178.206 61.1413 177.353 63.616C176.499 66.0907 175.71 68.5867 174.985 71.104C178.91 68.6293 182.195 64.9387 184.841 60.032C185.609 58.5813 186.441 57.1093 187.337 55.616L188.297 53.824L190.217 50.752C190.473 49.9413 190.921 49.4293 191.561 49.216C192.201 48.96 192.883 48.832 193.609 48.832C194.377 48.832 195.145 48.8533 195.913 48.896C196.681 48.896 197.385 48.6827 198.025 48.256C198.665 47.8293 199.411 47.68 200.265 47.808C201.161 47.8933 201.95 48.1707 202.633 48.64C203.358 49.1093 203.891 49.6853 204.233 50.368C204.617 51.008 204.659 51.648 204.361 52.288C202.569 56.128 200.115 63.2747 197.001 73.728C196.275 76.0747 195.593 78.0373 194.953 79.616C193.886 80.9387 192.542 81.8347 190.921 82.304C189.299 82.7733 187.763 82.9013 186.313 82.688C184.905 82.5173 183.774 82.0267 182.921 81.216C182.067 80.448 181.875 79.4667 182.345 78.272C181.15 79.2533 179.913 80.1493 178.633 80.96C177.353 81.7707 175.795 82.304 173.961 82.56C172.169 82.816 170.441 82.7307 168.777 82.304C167.113 81.92 165.683 81.152 164.489 80C163.337 78.848 162.718 77.312 162.633 75.392C162.377 68.6507 165.043 60.8213 170.633 51.904ZM210.021 52.16C210.106 51.3493 210.618 50.688 211.557 50.176C212.496 49.664 213.541 49.408 214.693 49.408C215.845 49.408 216.954 49.6853 218.021 50.24C219.13 50.752 219.877 51.648 220.261 52.928C223.888 49.7707 227.194 48.5547 230.181 49.28C231.205 49.4933 232.08 50.0907 232.805 51.072C234.981 48.9813 237.392 47.616 240.037 46.976C243.365 46.848 245.754 47.616 247.205 49.28C247.418 49.4933 247.632 49.728 247.845 49.984C248.442 50.624 248.784 51.0507 248.869 51.264C249.637 52.4587 249.85 55.2107 249.509 59.52C249.04 65.1093 247.973 70.72 246.309 76.352C245.413 79.2107 244.602 80.6827 243.877 80.768C243.45 80.8533 243.045 80.8533 242.661 80.768C242.32 80.6827 242 80.6187 241.701 80.576C241.445 80.576 241.296 80.832 241.253 81.344C240.4 82.4533 239.098 83.008 237.349 83.008C235.642 83.008 234.192 82.4747 232.997 81.408C231.674 80.2987 231.205 78.9973 231.589 77.504C232.016 75.968 232.485 74.4107 232.997 72.832C233.509 71.2107 234.064 69.5467 234.661 67.84C235.685 64.8533 236.816 61.7387 238.053 58.496C237.157 59.52 235.941 61.4613 234.405 64.32C232.869 67.136 231.909 68.8213 231.525 69.376C230.8 70.8267 230.202 71.9787 229.733 72.832C229.264 73.6427 228.624 74.304 227.813 74.816C227.045 75.2853 226.32 75.584 225.637 75.712C224.997 75.84 224.378 75.8613 223.781 75.776C222.373 75.5627 221.37 74.9653 220.773 73.984C220.645 73.6427 220.517 73.3013 220.389 72.96C220.261 72.6187 220.154 72.1493 220.069 71.552C219.941 70.2293 220.112 68.0747 220.581 65.088L220.453 65.28C220.965 64.768 221.136 64.64 220.965 64.896C219.258 67.328 218.234 68.8853 217.893 69.568C217.552 70.2507 217.189 71.0187 216.805 71.872C216.421 72.6827 215.973 73.6427 215.461 74.752C214.949 75.8187 214.544 76.7787 214.245 77.632C213.946 78.4853 213.584 79.3173 213.157 80.128C211.237 83.456 207.866 84.8 203.045 84.16C202.021 84.032 201.146 83.776 200.421 83.392C199.696 83.0507 199.397 82.5173 199.525 81.792C199.866 80.0853 200.656 77.248 201.893 73.28C204.325 65.4293 205.776 60.3733 206.245 58.112C206.544 57.344 206.8 56.5547 207.013 55.744C207.269 54.9333 207.525 54.2293 207.781 53.632C208.293 52.224 209.04 51.7333 210.021 52.16ZM232.229 67.968V68.096C232.314 67.9253 232.314 67.8827 232.229 67.968Z" fill="black"/>
<path d="M285.58 36.608C287.03 37.376 287.948 38.5067 288.332 40C287.478 44.7787 286.71 49.536 286.028 54.272C285.345 58.9653 284.684 62.912 284.044 66.112C283.404 69.2693 282.956 71.6373 282.7 73.216C282.486 74.7947 282.23 76.3733 281.932 77.952L281.548 79.296C281.462 79.7653 281.377 80.192 281.292 80.576C281.206 81.0027 281.121 81.4507 281.036 81.92C279.841 83.2853 278.22 83.968 276.172 83.968C273.996 83.968 272.268 83.4133 270.988 82.304C270.22 81.7067 270.092 80.448 270.604 78.528C270.817 77.76 270.945 76.7787 270.988 75.584C271.073 74.3467 271.158 73.3227 271.244 72.512V72.384C269.964 72.8533 268.812 73.472 267.788 74.24C266.764 74.9653 266.124 75.4347 265.868 75.648C265.612 75.8187 265.27 75.968 264.844 76.096C264.417 76.1813 264.033 76.2453 263.692 76.288C262.881 76.3307 262.326 76.4587 262.028 76.672C259.553 81.1093 257.334 83.584 255.372 84.096C254.134 84.48 252.897 84.5653 251.66 84.352C250.422 84.1813 249.441 83.456 248.715 82.176C247.35 80.896 247.691 77.3973 249.739 71.68C250.849 68.6507 252.428 65.024 254.476 60.8C256.566 56.5333 258.572 52.8213 260.492 49.664C264.63 42.88 269.174 37.1627 274.124 32.512C274.934 32.1707 275.809 31.7867 276.748 31.36C277.686 30.8907 278.604 30.6347 279.5 30.592C280.438 30.5493 281.398 30.656 282.38 30.912C283.361 31.168 284.193 31.552 284.876 32.064C286.454 33.2587 286.689 34.7733 285.58 36.608ZM271.884 53.44C270.988 56 270.092 58.368 269.196 60.544C268.3 62.6773 267.532 64.5547 266.892 66.176L271.948 65.984C272.289 63.2533 272.673 60.544 273.1 57.856C273.526 55.168 273.932 52.48 274.316 49.792L271.884 53.44ZM270.156 66.24C270.753 66.24 271.35 66.1973 271.948 66.112V66.048C271.393 66.0907 270.881 66.1333 270.412 66.176C269.942 66.2187 269.857 66.24 270.156 66.24ZM313.385 36.736C311.891 41.3867 310.505 45.5893 309.225 49.344C307.987 53.0987 306.835 56.5547 305.769 59.712C304.745 62.8693 303.785 65.792 302.889 68.48C301.993 71.1253 301.161 73.664 300.393 76.096C299.966 78.912 298.579 80.896 296.233 82.048C294.867 82.688 293.246 83.008 291.369 83.008C289.491 83.008 288.083 82.7947 287.145 82.368C286.206 81.984 285.608 81.408 285.352 80.64C285.054 79.872 285.054 78.9547 285.352 77.888C285.608 76.7787 286.078 75.2853 286.761 73.408C287.443 71.488 288.297 68.9067 289.321 65.664C290.387 62.4213 291.497 59.136 292.649 55.808C295.507 47.488 297.769 41.728 299.433 38.528C300.073 37.3333 300.713 36.544 301.353 36.16C301.993 35.7333 302.611 35.4347 303.208 35.264C303.806 35.0507 304.361 34.816 304.873 34.56C305.385 34.304 305.833 33.664 306.217 32.64C306.643 31.616 307.39 30.912 308.457 30.528C309.566 30.144 310.59 30.1227 311.529 30.464C312.51 30.7627 313.235 31.4453 313.705 32.512C314.217 33.536 314.11 34.944 313.385 36.736Z" fill="url(#paint1_linear_133_12)"/>
<defs>
<linearGradient id="paint0_linear_133_12" x1="9.35229" y1="9.35229" x2="99.6477" y2="99.6477" gradientUnits="userSpaceOnUse">
<stop stop-color="#7FFFEB"/>
<stop offset="1" stop-color="#0BCEAF"/>
</linearGradient>
<linearGradient id="paint1_linear_133_12" x1="187" y1="14.5" x2="679.5" y2="265.5" gradientUnits="userSpaceOnUse">
<stop stop-color="#5EFFEB"/>
<stop offset="1" stop-color="#15D3B4"/>
</linearGradient>
</defs>
</svg>
